<svg width="1em" height="1em" viewBox="-1.100 -1.495 24.200 24.200" fill="none" xmlns="http://www.w3.org/2000/svg">
<path id="vector" d="M17.8133 10.5063C17.4973 10.4668 17.1813 10.4273 16.8654 10.4273C13.5476 10.4273 10.8223 13.0736 10.8223 16.3519C10.8223 16.5494 10.8223 16.7469 10.8618 16.9443L10.7433 17.5763C10.6643 17.9713 10.3483 18.2478 9.95332 18.2478H8.8079C8.41293 18.2478 8.09695 17.9713 8.01795 17.5763L7.70198 15.7594C6.87253 15.5619 6.12208 15.246 5.41113 14.772L3.83124 15.7594C3.47576 15.9964 3.04129 15.9174 2.76481 15.6409L2.01436 14.8115C1.77738 14.535 1.73788 14.1005 2.01436 13.7846L3.19928 12.3627C2.9228 11.8492 2.68582 11.3357 2.56732 10.7828L0.671454 10.4668C0.276481 10.3878 0 10.0718 0 9.67684V8.57091C0 8.21544 0.276481 7.85996 0.671454 7.78097L2.56732 7.50449C2.72531 6.83303 3.0018 6.16158 3.35727 5.60862L2.29084 4.10772C2.05386 3.79174 2.09336 3.35727 2.36984 3.08079L3.15978 2.33034C3.43627 2.05386 3.91023 2.01436 4.22621 2.25135L5.72711 3.27828C6.31957 2.9228 6.99102 2.64632 7.70198 2.48833L8.01795 0.671454C8.09695 0.27648 8.41293 0 8.8079 0H9.95332C10.3483 0 10.6643 0.27648 10.7433 0.671454L11.0592 2.48833C11.9282 2.68582 12.7181 3.04129 13.3896 3.51526L14.9695 2.52783C15.325 2.33034 15.7594 2.40934 16.0359 2.68582L16.7864 3.51526C17.0233 3.79174 17.0628 4.22621 16.7864 4.54219L15.6014 5.96409C15.8779 6.43806 16.0754 6.95153 16.1939 7.50449L18.0503 7.78097C18.4452 7.85996 18.7217 8.21544 18.7217 8.57091V9.67684C18.7217 10.0718 18.4452 10.3878 18.0503 10.4668L17.8133 10.5063ZM9.40036 12.5601C7.46499 12.5601 5.8851 11.0197 5.8851 9.12388C5.8851 7.22801 7.46499 5.68761 9.40036 5.68761C11.3357 5.68761 12.9156 7.22801 12.9156 9.12388C12.9156 11.0197 11.3357 12.5601 9.40036 12.5601ZM16.8654 21.2101C14.061 21.2101 11.7702 18.9587 11.7702 16.2334C11.7702 13.4686 14.061 11.2172 16.8654 11.2172C19.7092 11.2172 22 13.4686 22 16.2334C22 18.9587 19.7092 21.2101 16.8654 21.2101ZM19.5512 15.8384L15.8779 13.5476C15.7594 13.4686 15.6409 13.5081 15.5224 13.5081C15.1275 13.5081 15.1275 13.8241 15.1275 13.9031V18.5637C15.1275 18.6032 15.1275 18.9587 15.5224 18.9587C15.6409 18.9587 15.7594 18.9587 15.8779 18.8797L19.5512 16.5889C19.8276 16.4309 19.7882 16.2334 19.7882 16.2334C19.7882 16.2334 19.8276 15.9964 19.5512 15.8384Z" fill="currentColor"/>
</svg>
