<svg width="1em" height="1em" viewBox="-1.000 -1.000 22.000 22.000" fill="none" xmlns="http://www.w3.org/2000/svg">
<path id="vector" fill-rule="evenodd" clip-rule="evenodd" d="M14 0C14.2652 0 14.5195 0.105432 14.707 0.292969L19.707 5.29297C19.8946 5.4805 20 5.73478 20 6V17C20 17.7957 19.6837 18.5585 19.1211 19.1211C18.5585 19.6837 17.7957 20 17 20H3C2.20435 20 1.44152 19.6837 0.878906 19.1211C0.316297 18.5585 0 17.7957 0 17V3C0 2.20435 0.316297 1.44152 0.878906 0.878906C1.44152 0.316297 2.20435 0 3 0H14ZM3 2C2.73478 2 2.4805 2.10543 2.29297 2.29297C2.10543 2.4805 2 2.73478 2 3V17C2 17.2652 2.10543 17.5195 2.29297 17.707C2.48051 17.8946 2.73478 18 3 18H4V11C4 10.4477 4.44772 10 5 10H15C15.5523 10 16 10.4477 16 11V18H17C17.2652 18 17.5195 17.8946 17.707 17.707C17.8946 17.5195 18 17.2652 18 17V6.41406L13.5859 2H6V5H13C13.5523 5 14 5.44772 14 6C14 6.55228 13.5523 7 13 7H5C4.44772 7 4 6.55228 4 6V2H3ZM6 18H14V12H6V18Z" fill="currentColor"/>
</svg>
